<?xml version="1.0" encoding="UTF-8" standalone="no"?>
<!-- Created with Inkscape (http://www.inkscape.org/) -->

<svg
   width="99.538696mm"
   height="21.419365mm"
   viewBox="0 0 99.538696 21.419365"
   version="1.1"
   id="svg1"
   inkscape:version="1.4 (e7c3feb100, 2024-10-09)"
   sodipodi:docname="LoginBanner_safe.svg"
   xmlns:inkscape="http://www.inkscape.org/namespaces/inkscape"
   xmlns:sodipodi="http://sodipodi.sourceforge.net/DTD/sodipodi-0.dtd"
   xmlns="http://www.w3.org/2000/svg"
   xmlns:svg="http://www.w3.org/2000/svg">
  <sodipodi:namedview
     id="namedview1"
     pagecolor="#000000"
     bordercolor="#000000"
     borderopacity="0.25"
     inkscape:showpageshadow="2"
     inkscape:pageopacity="0.0"
     inkscape:pagecheckerboard="false"
     inkscape:deskcolor="#d1d1d1"
     inkscape:document-units="mm"
     inkscape:zoom="1.4715122"
     inkscape:cx="226.6376"
     inkscape:cy="28.542067"
     inkscape:window-width="2560"
     inkscape:window-height="1371"
     inkscape:window-x="2560"
     inkscape:window-y="32"
     inkscape:window-maximized="1"
     inkscape:current-layer="layer1" />
  <defs
     id="defs1" />
  <g
     inkscape:label="Layer 1"
     inkscape:groupmode="layer"
     id="layer1"
     transform="translate(-30.878207,-101.59026)">
    <path
       style="font-style:italic;font-weight:bold;font-size:6.42202px;font-family:'Lobster Two';-inkscape-font-specification:'Lobster Two, Bold Italic';text-align:center;text-anchor:middle;fill:#ffffff;stroke-width:0.802755"
       d="m 44.676454,101.60311 c -0.08349,-0.006 -0.166972,-0.0129 -0.263302,-0.0129 -1.066056,0 -2.247707,0.79633 -2.247707,1.70184 0,0.43027 0.263302,0.59082 0.687156,0.59082 -0.01927,-0.0578 -0.08991,-0.12844 -0.08991,-0.44312 0,-0.7 0.359634,-1.20091 0.956881,-1.41926 l 0.102753,4.38624 h 0.924771 l 1.220183,-3.26881 0.07706,3.26881 h 0.924771 l 1.785321,-4.78441 h -0.449541 l -1.348624,3.93028 -0.0578,-3.93028 h -0.815596 l -1.348624,3.93028 z m 4.411934,3.7633 c 0,-0.0771 0.0064,-0.16697 0.01284,-0.25688 0.770642,-0.045 1.477065,-0.60367 1.477065,-1.32936 0,-0.3211 -0.134863,-0.61651 -0.706423,-0.61651 -1.316514,0 -1.733945,1.52844 -1.733945,2.26055 0,0.72569 0.398165,1.0211 1.001835,1.0211 0.854129,0 1.4,-0.59725 1.766056,-1.18808 h -0.218349 c -0.321101,0.36606 -0.629358,0.64863 -1.136698,0.64863 -0.308257,0 -0.462385,-0.10275 -0.462385,-0.53945 z m 0.995413,-1.59908 c 0,0.52018 -0.430275,1.00183 -0.931193,1.03394 0.134863,-0.62936 0.449542,-1.29725 0.770642,-1.29725 0.122019,0 0.160551,0.10276 0.160551,0.26331 z m 1.290831,-1.72753 -0.687157,3.21743 c -0.03211,0.15413 -0.05138,0.29542 -0.05138,0.41744 0,0.53945 0.301835,0.77064 0.687156,0.77064 0.346789,0 0.982569,-0.14129 1.348625,-1.18808 h -0.269725 c -0.09633,0.32111 -0.327523,0.56514 -0.577982,0.56514 -0.179817,0 -0.263303,-0.0578 -0.263303,-0.23761 0,-0.0578 0.0064,-0.12202 0.02569,-0.20551 l 0.738532,-3.46789 z m 2.787158,2.15138 c 0.07706,0.0514 0.186238,0.0771 0.25688,0.0771 0.186239,0 0.340367,-0.22477 0.340367,-0.53945 0,-0.27614 -0.141284,-0.56513 -0.712844,-0.56513 -1.30367,0 -1.727523,1.52844 -1.727523,2.26055 0,0.72569 0.398165,1.0211 1.001835,1.0211 0.854129,0 1.4,-0.59725 1.766055,-1.18808 h -0.218348 c -0.321101,0.36606 -0.629358,0.64863 -1.136698,0.64863 -0.308257,0 -0.488073,-0.10918 -0.488073,-0.54587 0,-0.7 0.404587,-1.85597 0.847706,-1.85597 0.122019,0 0.179817,0.0899 0.179817,0.23762 0,0.10917 -0.04495,0.30826 -0.109174,0.44954 z m 2.376152,-1.02752 c -1.322936,0 -1.759634,1.52844 -1.759634,2.26697 0,0.73211 0.430276,1.01468 1.027524,1.01468 0.789908,0 1.438532,-0.75138 1.541284,-1.94587 0.462386,-0.0771 0.886239,-0.26973 1.130276,-0.53303 l -0.0578,-0.1734 c -0.276147,0.19266 -0.693578,0.38533 -0.988991,0.38533 -0.01927,0 -0.04495,0 -0.07064,-0.006 -0.0064,-0.66789 -0.276146,-1.00825 -0.822018,-1.00825 z m -0.47523,2.67798 c -0.244036,0 -0.327523,-0.0963 -0.327523,-0.52018 0,-0.62936 0.398166,-1.77248 0.854129,-1.77248 0.160551,0 0.231193,0.0963 0.244037,0.35963 -0.115597,0.045 -0.199083,0.16055 -0.199083,0.34037 0,0.12844 0.03853,0.23761 0.173395,0.26972 -0.09633,0.7578 -0.430276,1.32294 -0.744955,1.32294 z m 5.060547,-1.75963 c 0,0.411 -0.288991,1.20091 -0.288991,1.63761 0,0.36606 0.199083,0.72569 0.757798,0.72569 0.340367,0 0.834863,-0.13486 1.194496,-1.18808 h -0.269725 c -0.141284,0.33395 -0.256881,0.56514 -0.539449,0.56514 -0.192661,0 -0.256881,-0.10917 -0.256881,-0.26972 0,-0.35964 0.308257,-1.1367 0.308257,-1.65688 0,-0.51376 -0.301835,-0.72569 -0.712844,-0.72569 -0.237615,0 -0.584404,0.0706 -0.899083,0.54587 -0.08349,-0.43028 -0.340367,-0.55229 -0.655046,-0.55229 -0.224771,0 -0.513762,0.0578 -0.783487,0.36605 l 0.07064,-0.33394 h -0.92477 l -0.680735,3.21101 h 0.924771 l 0.436698,-2.06147 c 0.09633,-0.3211 0.269725,-0.59725 0.520183,-0.59725 0.141285,0 0.192661,0.14128 0.192661,0.28257 0,0.0578 -0.0064,0.10917 -0.01927,0.16055 l -0.468808,2.2156 h 0.924771 l 0.436698,-2.06147 c 0.09633,-0.3211 0.269724,-0.59083 0.500917,-0.59083 0.154129,0 0.231193,0.1156 0.231193,0.32753 z m 2.266978,1.02752 c 0.770642,-0.045 1.477064,-0.59725 1.477064,-1.32936 0,-0.3211 -0.134862,-0.61651 -0.706422,-0.61651 -1.316514,0 -1.733945,1.52844 -1.733945,2.26055 0,0.72569 0.398165,1.0211 0.995413,1.0211 0.513761,0 0.976147,-0.21835 1.111009,-0.95046 -0.205504,0.17982 -0.513761,0.34037 -0.757798,0.34037 -0.321101,0 -0.398165,-0.26973 -0.398165,-0.52661 0,-0.0706 0.0064,-0.13486 0.01284,-0.19908 z m 0.982569,-1.3422 c 0,0.5266 -0.436698,1.00825 -0.937615,1.03394 0.134862,-0.60367 0.455963,-1.29725 0.777064,-1.29725 0.122019,0 0.160551,0.10276 0.160551,0.26331 z m 2.703667,-1.4578 -0.192661,0.88624 h -0.211926 l -0.05138,0.25688 h 0.211926 l -0.385321,1.80458 c -0.03211,0.15413 -0.05138,0.29542 -0.05138,0.41744 0,0.53945 0.301835,0.77064 0.687156,0.77064 0.346789,0 0.982569,-0.14129 1.348624,-1.18808 h -0.269725 c -0.09633,0.32111 -0.327523,0.56514 -0.577981,0.56514 -0.179817,0 -0.263303,-0.0578 -0.263303,-0.23761 0,-0.0578 0.0064,-0.12202 0.02569,-0.20551 l 0.411009,-1.9266 h 0.385321 l 0.05138,-0.25688 h -0.385322 l 0.218349,-1.01468 z m 2.755049,0.85413 c -1.322936,0 -1.759634,1.52844 -1.759634,2.26697 0,0.73211 0.430276,1.01468 1.027524,1.01468 0.809174,0 1.470642,-0.78349 1.541284,-2.02936 0.333945,-0.19266 0.520184,-0.5844 0.648624,-0.85413 h -0.205504 c -0.06422,0.1156 -0.224771,0.38532 -0.436698,0.44312 -0.04495,-0.55871 -0.314679,-0.84128 -0.815596,-0.84128 z m -0.47523,2.67798 c -0.244036,0 -0.327523,-0.0963 -0.327523,-0.52018 0,-0.62936 0.398166,-1.77248 0.854129,-1.77248 0.160551,0 0.224771,0.0899 0.244037,0.34036 -0.115597,0.045 -0.199083,0.16056 -0.199083,0.34037 0,0.16697 0.0578,0.2633 0.173395,0.29541 -0.102753,0.75138 -0.430276,1.31652 -0.744955,1.31652 z"
       id="text1"
       aria-label="Welcome to" />
    <path
       d="m 41.354819,118.74057 c -1.001921,1.3722 -2.613708,2.287 -4.269056,2.287 -2.112747,0 -2.591927,-1.48111 -2.591927,-3.57207 0,-4.37796 2.090966,-10.10634 4.617551,-10.10634 0.849455,0 1.241511,0.63165 1.241511,1.35042 0,0.78411 -0.47918,1.72069 -1.001921,1.98206 0.413837,0.47918 0.893016,0.5663 1.241511,0.5663 1.110826,0 1.524663,-0.87123 1.524663,-1.96028 0,-2.15631 -1.611787,-2.9622 -3.550287,-2.9622 -5.859062,0 -7.688657,7.4055 -7.688657,11.34785 0,3.72453 1.633567,5.33632 4.486865,5.33632 2.679051,0 5.314539,-1.43754 6.490708,-4.05125 z m 6.229337,-3.96412 c 0,1.39397 -0.98014,4.07303 -0.98014,5.55413 0,1.24151 0.675207,2.46124 2.570146,2.46124 1.154387,0 2.831516,-0.4574 4.051247,-4.02947 h -0.914798 c -0.47918,1.13261 -0.871236,1.91672 -1.829595,1.91672 -0.653427,0 -0.871236,-0.37027 -0.871236,-0.9148 0,-1.21973 1.045483,-3.85522 1.045483,-5.61947 0,-1.74247 -1.023703,-2.46124 -2.41768,-2.46124 -0.675208,0 -1.633567,0.17425 -2.548365,1.21973 l 1.176168,-5.48879 -3.223573,0.43562 -3.15823,14.81101 h 3.136449 l 1.481101,-6.99167 c 0.326714,-1.08904 0.914798,-2.00384 1.698911,-2.00384 0.522741,0 0.784112,0.39206 0.784112,1.11083 z m 12.044819,-3.00577 -0.217809,1.02371 c -0.152466,-1.00193 -1.067264,-1.13261 -1.786033,-1.13261 -3.789877,0 -5.597691,4.68289 -5.597691,7.62331 0,2.59193 1.415758,3.50673 2.896859,3.50673 1.546444,0 2.591927,-1.0237 3.245354,-2.02563 0.174247,1.24152 0.95836,1.89494 2.134528,1.89494 1.176169,0 3.13645,-0.34849 4.377961,-3.89878 h -0.914798 c -0.326713,1.08905 -0.914798,1.91672 -1.764253,1.91672 -0.609865,0 -0.893016,-0.19603 -0.893016,-0.80589 0,-0.19603 0.02178,-0.41384 0.08712,-0.69699 l 1.590006,-7.40551 z m -1.328634,1.24151 c 0.675207,0 0.871235,0.56631 0.893016,0.82768 l -1.045483,4.92248 c -0.261371,1.26329 -1.176168,1.91672 -1.807814,1.91672 -0.392057,0 -1.089045,-0.0218 -1.089045,-1.69891 0,-2.0474 1.197949,-5.96797 3.049326,-5.96797 z m 7.601552,-4.24727 -0.653427,3.00576 h -0.718769 l -0.174248,0.87124 h 0.71877 l -1.306854,6.12043 c -0.108904,0.52274 -0.174247,1.00192 -0.174247,1.41576 0,1.8296 1.023702,2.61371 2.330556,2.61371 1.176169,0 3.332478,-0.47918 4.573989,-4.02947 h -0.914798 c -0.326713,1.08905 -1.110826,1.91672 -1.960281,1.91672 -0.609865,0 -0.893017,-0.19603 -0.893017,-0.80589 0,-0.19603 0.02178,-0.41384 0.08712,-0.69699 l 1.393978,-6.53427 h 1.306853 l 0.174248,-0.87124 h -1.306854 l 0.74055,-3.44138 z m 10.99936,3.00576 -0.217809,1.02371 c -0.152466,-1.00193 -1.067264,-1.13261 -1.786034,-1.13261 -3.789876,0 -5.597691,4.68289 -5.597691,7.62331 0,2.59193 1.415759,3.50673 2.89686,3.50673 1.546444,0 2.591927,-1.0237 3.245354,-2.02563 0.174247,1.2633 0.95836,2.02563 2.134528,2.02563 1.176169,0 1.590006,-0.67521 2.17809,-2.19987 -0.152466,0.0653 -0.283152,0.0871 -0.47918,0.0871 -0.609865,0 -0.893017,-0.19603 -0.893017,-0.80589 0,-0.19603 0.02178,-0.41384 0.08712,-0.69699 l 1.568225,-7.40551 z m -1.328635,1.24151 c 0.675208,0 0.871236,0.56631 0.893017,0.82768 l -1.045483,4.92248 c -0.261371,1.26329 -1.176168,1.91672 -1.807815,1.91672 -0.392056,0 -1.089045,-0.0218 -1.089045,-1.69891 0,-2.0474 1.19795,-5.96797 3.049326,-5.96797 z m 11.434956,-4.20371 -2.962203,13.85265 h 3.13645 l 1.328635,-6.20755 h 0.108904 c 3.920562,0 6.29468,-3.09289 6.29468,-5.8155 0,-2.26522 -1.633567,-4.31262 -4.987826,-4.31262 -3.855219,0 -7.797562,2.70083 -7.797562,5.77194 0,1.45932 0.893017,2.00384 2.330557,2.00384 -0.108905,-0.21781 -0.304933,-0.41384 -0.304933,-1.50288 0,-3.39782 2.41768,-5.27098 5.270978,-5.27098 2.43946,0 3.071106,1.35042 3.071106,2.87508 0,2.46124 -1.611786,5.27098 -3.811657,5.44522 l 1.546444,-7.27482 z m 14.397146,2.9622 -0.21781,1.02371 c -0.15246,-1.00193 -1.06726,-1.13261 -1.786032,-1.13261 -3.789876,0 -5.597691,4.68289 -5.597691,7.62331 0,2.59193 1.415758,3.50673 2.89686,3.50673 1.546443,0 2.591927,-1.0237 3.245354,-2.02563 0.174249,1.24152 0.958359,1.89494 2.134529,1.89494 1.17617,0 3.13645,-0.34849 4.37796,-3.89878 h -0.9148 c -0.32671,1.08905 -0.9148,1.91672 -1.76425,1.91672 -0.60987,0 -0.89302,-0.19603 -0.89302,-0.80589 0,-0.19603 0.0218,-0.41384 0.0871,-0.69699 l 1.59,-7.40551 z m -1.32863,1.24151 c 0.6752,0 0.87123,0.56631 0.89301,0.82768 l -1.04548,4.92248 c -0.261371,1.26329 -1.176169,1.91672 -1.807815,1.91672 -0.392056,0 -1.089045,-0.0218 -1.089045,-1.69891 0,-2.0474 1.19795,-5.96797 3.04933,-5.96797 z m 11.73992,1.76426 c 0,1.39397 -0.98014,4.07303 -0.98014,5.55413 0,1.24151 0.67521,2.46124 2.57015,2.46124 1.15439,0 2.83152,-0.4574 4.05125,-4.02947 h -0.9148 c -0.47918,1.13261 -0.87124,1.91672 -1.8296,1.91672 -0.65342,0 -0.87123,-0.37027 -0.87123,-0.9148 0,-1.21973 1.04548,-3.85522 1.04548,-5.61947 0,-1.74247 -1.0237,-2.46124 -2.41768,-2.46124 -0.67521,0 -1.63357,0.17425 -2.54836,1.21973 l 0.23958,-1.13261 h -3.13644 l -2.30878,10.89045 h 3.13645 l 1.4811,-6.99167 c 0.32671,-1.08904 0.9148,-2.00384 1.69891,-2.00384 0.52274,0 0.78411,0.39206 0.78411,1.11083 z m 7.66686,4.35618 c 0,-0.26137 0.0218,-0.56631 0.0436,-0.87124 2.61371,-0.15247 5.00961,-2.0474 5.00961,-4.50864 0,-1.08905 -0.4574,-2.09097 -2.3959,-2.09097 -4.46508,0 -5.88084,5.18385 -5.88084,7.66688 0,2.46124 1.35041,3.46316 3.39782,3.46316 2.89686,0 4.74824,-2.02563 5.98975,-4.02947 h -0.74055 c -1.08905,1.24151 -2.13453,2.19987 -3.85522,2.19987 -1.04549,0 -1.56823,-0.34849 -1.56823,-1.82959 z m 3.37604,-5.42345 c 0,1.76426 -1.45932,3.39782 -3.15823,3.50673 0.4574,-2.13453 1.52466,-4.39974 2.61371,-4.39974 0.41384,0 0.54452,0.34849 0.54452,0.89301 z m 7.55799,-6.33824 -3.22357,0.43562 -2.33056,10.91223 c -0.1089,0.52274 -0.17424,1.00192 -0.17424,1.41576 0,1.85137 1.0237,2.65727 2.33055,2.65727 1.17617,0 2.287,-0.74055 2.3959,-2.287 -0.13068,0.0654 -0.30493,0.13069 -0.69699,0.13069 -0.67521,0 -0.89301,-0.37028 -0.89301,-0.87124 0,-0.19602 0.0436,-0.41383 0.0871,-0.63164 z"
       id="text2"
       style="font-style:italic;font-weight:bold;font-size:21.7809px;font-family:'Lobster Two';-inkscape-font-specification:'Lobster Two, Bold Italic';text-align:center;text-anchor:middle;fill:#ffffff;stroke-width:2.72262"
       aria-label="ChataPanel" />
  </g>
</svg>
