<?xml version="1.0" encoding="utf-8" standalone="no"?>
<!DOCTYPE svg PUBLIC "-//W3C//DTD SVG 1.1//EN"
  "http://www.w3.org/Graphics/SVG/1.1/DTD/svg11.dtd">
<svg xmlns:xlink="http://www.w3.org/1999/xlink" width="534.24pt" height="352.8pt" viewBox="0 0 534.24 352.8" xmlns="http://www.w3.org/2000/svg" version="1.1">
 <metadata>
  <rdf:RDF xmlns:dc="http://purl.org/dc/elements/1.1/" xmlns:cc="http://creativecommons.org/ns#" xmlns:rdf="http://www.w3.org/1999/02/22-rdf-syntax-ns#">
   <cc:Work>
    <dc:type rdf:resource="http://purl.org/dc/dcmitype/StillImage"/>
    <dc:date>2025-01-27T20:26:15.209555</dc:date>
    <dc:format>image/svg+xml</dc:format>
    <dc:creator>
     <cc:Agent>
      <dc:title>Matplotlib v3.7.1, https://matplotlib.org/</dc:title>
     </cc:Agent>
    </dc:creator>
   </cc:Work>
  </rdf:RDF>
 </metadata>
 <defs>
  <style type="text/css">*{stroke-linejoin: round; stroke-linecap: butt}</style>
 </defs>
 <g id="figure_1">
  <g id="patch_1">
   <path d="M 0 352.8 
L 534.24 352.8 
L 534.24 0 
L 0 0 
z
"/>
  </g>
  <g id="axes_1">
   <g id="patch_2">
    <path d="M 66.78 313.992 
L 480.816 313.992 
L 480.816 42.336 
L 66.78 42.336 
z
"/>
   </g>
   <g id="patch_3">
    <path d="M 85.599818 313.992 
L 139.370727 313.992 
L 139.370727 55.272 
L 85.599818 55.272 
z
" clip-path="url(#p0487ea0827)" style="fill: #ff0000; stroke: #808080; stroke-linejoin: miter"/>
   </g>
   <g id="patch_4">
    <path d="M 300.683455 313.992 
L 354.454364 313.992 
L 354.454364 55.272 
L 300.683455 55.272 
z
" clip-path="url(#p0487ea0827)" style="fill: #ff0000; stroke: #808080; stroke-linejoin: miter"/>
   </g>
   <g id="patch_5">
    <path d="M 85.599818 313.992 
L 139.370727 313.992 
L 139.370727 55.272 
L 85.599818 55.272 
z
" clip-path="url(#p0487ea0827)" style="fill: #ff0000; stroke: #808080; stroke-linejoin: miter"/>
   </g>
   <g id="patch_6">
    <path d="M 300.683455 313.992 
L 354.454364 313.992 
L 354.454364 55.272 
L 300.683455 55.272 
z
" clip-path="url(#p0487ea0827)" style="fill: #ff0000; stroke: #808080; stroke-linejoin: miter"/>
   </g>
   <g id="patch_7">
    <path d="M 139.370727 313.992 
L 193.141636 313.992 
L 193.141636 183.620669 
L 139.370727 183.620669 
z
" clip-path="url(#p0487ea0827)" style="fill: #0000ff; stroke: #808080; stroke-linejoin: miter"/>
   </g>
   <g id="patch_8">
    <path d="M 354.454364 313.992 
L 408.225273 313.992 
L 408.225273 157.775298 
L 354.454364 157.775298 
z
" clip-path="url(#p0487ea0827)" style="fill: #0000ff; stroke: #808080; stroke-linejoin: miter"/>
   </g>
   <g id="patch_9">
    <path d="M 139.370727 313.992 
L 193.141636 313.992 
L 193.141636 183.620669 
L 139.370727 183.620669 
z
" clip-path="url(#p0487ea0827)" style="fill: #0000ff; stroke: #808080; stroke-linejoin: miter"/>
   </g>
   <g id="patch_10">
    <path d="M 354.454364 313.992 
L 408.225273 313.992 
L 408.225273 157.775298 
L 354.454364 157.775298 
z
" clip-path="url(#p0487ea0827)" style="fill: #0000ff; stroke: #808080; stroke-linejoin: miter"/>
   </g>
   <g id="patch_11">
    <path d="M 193.141636 313.992 
L 246.912545 313.992 
L 246.912545 299.117334 
L 193.141636 299.117334 
z
" clip-path="url(#p0487ea0827)" style="fill: #008000; stroke: #808080; stroke-linejoin: miter"/>
   </g>
   <g id="patch_12">
    <path d="M 408.225273 313.992 
L 461.996182 313.992 
L 461.996182 302.25454 
L 408.225273 302.25454 
z
" clip-path="url(#p0487ea0827)" style="fill: #008000; stroke: #808080; stroke-linejoin: miter"/>
   </g>
   <g id="patch_13">
    <path d="M 193.141636 313.992 
L 246.912545 313.992 
L 246.912545 299.117334 
L 193.141636 299.117334 
z
" clip-path="url(#p0487ea0827)" style="fill: #008000; stroke: #808080; stroke-linejoin: miter"/>
   </g>
   <g id="patch_14">
    <path d="M 408.225273 313.992 
L 461.996182 313.992 
L 461.996182 302.25454 
L 408.225273 302.25454 
z
" clip-path="url(#p0487ea0827)" style="fill: #008000; stroke: #808080; stroke-linejoin: miter"/>
   </g>
   <g id="matplotlib.axis_1">
    <g id="xtick_1">
     <g id="line2d_1">
      <defs>
       <path id="m7a60317868" d="M 0 0 
L 0 3.5 
" style="stroke: #ffffff; stroke-width: 0.8"/>
      </defs>
      <g>
       <use xlink:href="#m7a60317868" x="166.256182" y="313.992" style="fill: #ffffff; stroke: #ffffff; stroke-width: 0.8"/>
      </g>
     </g>
     <g id="text_1">
      <!-- TH1520 -->
      <g style="fill: #ffffff" transform="translate(143.146026 328.692) scale(0.1 -0.1)">
       <defs>
        <path id="Unbounded-Regular-54" d="M 2086 4410 
L 2931 4410 
L 2931 0 
L 2086 0 
L 2086 4410 
z
M 102 4800 
L 4915 4800 
L 4915 4058 
L 102 4058 
L 102 4800 
z
" transform="scale(0.015625)"/>
        <path id="Unbounded-Regular-48" d="M 538 4800 
L 1382 4800 
L 1382 0 
L 538 0 
L 538 4800 
z
M 4442 4800 
L 5286 4800 
L 5286 0 
L 4442 0 
L 4442 4800 
z
M 992 2790 
L 4845 2790 
L 4845 2048 
L 992 2048 
L 992 2790 
z
" transform="scale(0.015625)"/>
        <path id="Unbounded-Regular-31" d="M 2451 4800 
L 2451 0 
L 1606 0 
L 1606 4544 
L 2067 4134 
L 58 3782 
L 58 4454 
L 1818 4800 
L 2451 4800 
z
" transform="scale(0.015625)"/>
        <path id="Unbounded-Regular-35" d="M 806 4800 
L 4314 4800 
L 4314 4115 
L 1082 4115 
L 1434 4339 
L 1165 2317 
L 915 2310 
Q 1062 2534 1315 2732 
Q 1568 2931 1929 3056 
Q 2291 3181 2746 3181 
Q 3373 3181 3808 2966 
Q 4243 2752 4470 2387 
Q 4698 2022 4698 1562 
Q 4698 1082 4429 710 
Q 4160 339 3670 124 
Q 3181 -90 2509 -90 
Q 1837 -90 1344 108 
Q 851 307 566 649 
Q 282 992 218 1414 
L 1069 1414 
Q 1158 1037 1529 819 
Q 1901 602 2509 602 
Q 2918 602 3216 720 
Q 3514 838 3680 1052 
Q 3846 1267 3846 1562 
Q 3846 1850 3708 2064 
Q 3571 2278 3292 2396 
Q 3014 2515 2586 2515 
Q 2234 2515 1955 2432 
Q 1677 2349 1475 2221 
Q 1274 2093 1139 1952 
L 435 1952 
L 806 4800 
z
" transform="scale(0.015625)"/>
        <path id="Unbounded-Regular-32" d="M 269 3149 
Q 307 3680 611 4070 
Q 915 4461 1420 4675 
Q 1926 4890 2573 4890 
Q 3187 4890 3651 4698 
Q 4115 4506 4374 4160 
Q 4634 3814 4634 3360 
Q 4634 3008 4464 2707 
Q 4294 2406 3907 2096 
Q 3520 1786 2861 1395 
L 1267 454 
L 1158 704 
L 4781 704 
L 4781 0 
L 314 0 
L 314 614 
L 2355 1856 
Q 2893 2182 3203 2422 
Q 3514 2662 3648 2873 
Q 3782 3085 3782 3322 
Q 3782 3571 3648 3769 
Q 3514 3968 3242 4083 
Q 2970 4198 2547 4198 
Q 2067 4198 1760 4057 
Q 1453 3917 1302 3677 
Q 1152 3437 1120 3149 
L 269 3149 
z
" transform="scale(0.015625)"/>
        <path id="Unbounded-Regular-30" d="M 2861 -90 
Q 2074 -90 1504 220 
Q 934 531 627 1091 
Q 320 1651 320 2400 
Q 320 3149 627 3709 
Q 934 4269 1504 4579 
Q 2074 4890 2861 4890 
Q 3648 4890 4214 4579 
Q 4781 4269 5088 3709 
Q 5395 3149 5395 2400 
Q 5395 1651 5088 1091 
Q 4781 531 4214 220 
Q 3648 -90 2861 -90 
z
M 2861 608 
Q 3661 608 4102 1078 
Q 4544 1549 4544 2400 
Q 4544 3251 4102 3721 
Q 3661 4192 2861 4192 
Q 2061 4192 1616 3721 
Q 1171 3251 1171 2400 
Q 1171 1549 1616 1078 
Q 2061 608 2861 608 
z
" transform="scale(0.015625)"/>
       </defs>
       <use xlink:href="#Unbounded-Regular-54"/>
       <use xlink:href="#Unbounded-Regular-48" x="78.399994"/>
       <use xlink:href="#Unbounded-Regular-31" x="169.399979"/>
       <use xlink:href="#Unbounded-Regular-35" x="216.499969"/>
       <use xlink:href="#Unbounded-Regular-32" x="293.999954"/>
       <use xlink:href="#Unbounded-Regular-30" x="372.899948"/>
      </g>
     </g>
    </g>
    <g id="xtick_2">
     <g id="line2d_2">
      <g>
       <use xlink:href="#m7a60317868" x="381.339818" y="313.992" style="fill: #ffffff; stroke: #ffffff; stroke-width: 0.8"/>
      </g>
     </g>
     <g id="text_2">
      <!-- AMD 5900x -->
      <g style="fill: #ffffff" transform="translate(344.995287 328.692) scale(0.1 -0.1)">
       <defs>
        <path id="Unbounded-Regular-41" d="M 1178 1101 
L 1178 1798 
L 4531 1798 
L 4531 1101 
L 1178 1101 
z
M 3405 4800 
L 5709 0 
L 4806 0 
L 2714 4480 
L 3040 4480 
L 947 0 
L 45 0 
L 2349 4800 
L 3405 4800 
z
" transform="scale(0.015625)"/>
        <path id="Unbounded-Regular-4d" d="M 6995 4800 
L 6995 0 
L 6189 0 
L 6189 4544 
L 6451 4531 
L 4218 0 
L 3315 0 
L 1082 4525 
L 1344 4538 
L 1344 0 
L 538 0 
L 538 4800 
L 1830 4800 
L 3981 365 
L 3558 365 
L 5702 4800 
L 6995 4800 
z
" transform="scale(0.015625)"/>
        <path id="Unbounded-Regular-44" d="M 2707 4800 
Q 3526 4800 4144 4499 
Q 4762 4198 5107 3657 
Q 5453 3117 5453 2400 
Q 5453 1683 5107 1142 
Q 4762 602 4144 301 
Q 3526 0 2707 0 
L 538 0 
L 538 4800 
L 2707 4800 
z
M 1382 294 
L 915 742 
L 2765 742 
Q 3315 742 3728 950 
Q 4141 1158 4368 1532 
Q 4595 1907 4595 2400 
Q 4595 2899 4368 3270 
Q 4141 3642 3728 3850 
Q 3315 4058 2765 4058 
L 915 4058 
L 1382 4506 
L 1382 294 
z
" transform="scale(0.015625)"/>
        <path id="Unbounded-Regular-20" transform="scale(0.015625)"/>
        <path id="Unbounded-Regular-39" d="M 2502 -90 
Q 1939 -90 1494 83 
Q 1050 256 771 557 
Q 493 858 416 1235 
L 1248 1235 
Q 1350 973 1632 790 
Q 1914 608 2483 608 
Q 3066 608 3427 822 
Q 3789 1037 3958 1433 
Q 4128 1830 4128 2374 
Q 4128 2950 3936 3356 
Q 3744 3763 3366 3977 
Q 2989 4192 2432 4192 
Q 2010 4192 1725 4073 
Q 1440 3955 1296 3747 
Q 1152 3539 1152 3270 
Q 1152 3027 1280 2828 
Q 1408 2630 1677 2515 
Q 1946 2400 2355 2400 
Q 2912 2400 3385 2669 
Q 3859 2938 4173 3366 
L 4531 3104 
Q 4326 2714 3987 2397 
Q 3648 2080 3197 1891 
Q 2746 1702 2189 1702 
Q 1619 1702 1193 1891 
Q 768 2080 534 2429 
Q 301 2778 301 3245 
Q 301 3731 563 4102 
Q 826 4474 1306 4682 
Q 1786 4890 2432 4890 
Q 3258 4890 3821 4573 
Q 4384 4256 4672 3696 
Q 4960 3136 4954 2400 
Q 4960 1670 4675 1110 
Q 4390 550 3843 230 
Q 3296 -90 2502 -90 
z
" transform="scale(0.015625)"/>
        <path id="Unbounded-Regular-78" d="M -38 0 
L 1709 2067 
L 1702 1658 
L 64 3622 
L 1018 3622 
L 2259 2150 
L 1907 2150 
L 3155 3622 
L 4077 3622 
L 2406 1645 
L 2374 2125 
L 4179 0 
L 3226 0 
L 1869 1587 
L 2234 1587 
L 890 0 
L -38 0 
z
" transform="scale(0.015625)"/>
       </defs>
       <use xlink:href="#Unbounded-Regular-41"/>
       <use xlink:href="#Unbounded-Regular-4d" x="89.899994"/>
       <use xlink:href="#Unbounded-Regular-44" x="207.599976"/>
       <use xlink:href="#Unbounded-Regular-20" x="297.199966"/>
       <use xlink:href="#Unbounded-Regular-35" x="323.699951"/>
       <use xlink:href="#Unbounded-Regular-39" x="401.199936"/>
       <use xlink:href="#Unbounded-Regular-30" x="483.699921"/>
       <use xlink:href="#Unbounded-Regular-30" x="572.999908"/>
       <use xlink:href="#Unbounded-Regular-78" x="662.299896"/>
      </g>
     </g>
    </g>
    <g id="text_3">
     <!-- Host Platform CPU -->
     <g style="fill: #ffffff" transform="translate(217.022219 342.042) scale(0.1 -0.1)">
      <defs>
       <path id="Unbounded-Regular-6f" d="M 2445 -90 
Q 1786 -90 1290 150 
Q 794 390 515 819 
Q 237 1248 237 1811 
Q 237 2381 515 2806 
Q 794 3232 1290 3472 
Q 1786 3712 2445 3712 
Q 3104 3712 3600 3472 
Q 4096 3232 4374 2806 
Q 4653 2381 4653 1811 
Q 4653 1248 4374 819 
Q 4096 390 3600 150 
Q 3104 -90 2445 -90 
z
M 2445 563 
Q 2867 563 3171 716 
Q 3475 870 3641 1148 
Q 3808 1427 3808 1811 
Q 3808 2195 3641 2473 
Q 3475 2752 3171 2905 
Q 2867 3059 2445 3059 
Q 2029 3059 1721 2905 
Q 1414 2752 1248 2473 
Q 1082 2195 1082 1811 
Q 1082 1427 1248 1148 
Q 1414 870 1721 716 
Q 2029 563 2445 563 
z
" transform="scale(0.015625)"/>
       <path id="Unbounded-Regular-73" d="M 4192 1101 
Q 4192 736 3987 467 
Q 3782 198 3366 54 
Q 2950 -90 2323 -90 
Q 1677 -90 1203 73 
Q 730 237 470 534 
Q 211 832 192 1222 
L 1037 1222 
Q 1075 1018 1244 861 
Q 1414 704 1692 621 
Q 1971 538 2330 538 
Q 2848 538 3110 662 
Q 3373 787 3373 1043 
Q 3373 1216 3197 1305 
Q 3021 1395 2534 1440 
L 1824 1504 
Q 1248 1555 915 1712 
Q 582 1869 441 2096 
Q 301 2323 301 2579 
Q 301 2950 531 3200 
Q 762 3450 1171 3581 
Q 1581 3712 2125 3712 
Q 2688 3712 3129 3555 
Q 3571 3398 3833 3120 
Q 4096 2842 4128 2477 
L 3283 2477 
Q 3258 2624 3133 2761 
Q 3008 2899 2755 2992 
Q 2502 3085 2080 3085 
Q 1632 3085 1379 2969 
Q 1126 2854 1126 2630 
Q 1126 2490 1280 2390 
Q 1434 2291 1850 2253 
L 2765 2170 
Q 3315 2118 3625 1974 
Q 3936 1830 4064 1606 
Q 4192 1382 4192 1101 
z
" transform="scale(0.015625)"/>
       <path id="Unbounded-Regular-74" d="M 32 2982 
L 32 3360 
L 806 3558 
L 1152 4570 
L 1638 4570 
L 1638 3622 
L 3322 3622 
L 3322 2982 
L 1638 2982 
L 1638 1414 
Q 1638 960 1833 777 
Q 2029 595 2470 595 
Q 2752 595 2969 656 
Q 3187 717 3386 832 
L 3386 147 
Q 3219 64 2915 -13 
Q 2611 -90 2291 -90 
Q 1760 -90 1433 86 
Q 1107 262 956 572 
Q 806 883 806 1286 
L 806 2982 
L 32 2982 
z
" transform="scale(0.015625)"/>
       <path id="Unbounded-Regular-50" d="M 3078 4800 
Q 3616 4800 4009 4608 
Q 4403 4416 4617 4073 
Q 4832 3731 4832 3283 
Q 4832 2835 4617 2492 
Q 4403 2150 4009 1958 
Q 3616 1766 3078 1766 
L 922 1766 
L 922 2496 
L 3046 2496 
Q 3482 2496 3728 2707 
Q 3974 2918 3974 3283 
Q 3974 3648 3728 3859 
Q 3482 4070 3046 4070 
L 1005 4070 
L 1382 4493 
L 1382 0 
L 538 0 
L 538 4800 
L 3078 4800 
z
" transform="scale(0.015625)"/>
       <path id="Unbounded-Regular-6c" d="M 442 4928 
L 1274 4928 
L 1274 0 
L 442 0 
L 442 4928 
z
" transform="scale(0.015625)"/>
       <path id="Unbounded-Regular-61" d="M 3821 0 
L 3680 1344 
L 3846 1811 
L 3680 2272 
L 3821 3622 
L 4678 3622 
L 4486 1811 
L 4678 0 
L 3821 0 
z
M 4077 1811 
Q 3955 1242 3673 813 
Q 3392 384 2979 147 
Q 2566 -90 2061 -90 
Q 1530 -90 1120 150 
Q 710 390 480 819 
Q 250 1248 250 1811 
Q 250 2381 480 2806 
Q 710 3232 1120 3472 
Q 1530 3712 2061 3712 
Q 2566 3712 2979 3475 
Q 3392 3238 3677 2812 
Q 3962 2387 4077 1811 
z
M 1094 1811 
Q 1094 1446 1244 1168 
Q 1395 890 1657 733 
Q 1920 576 2259 576 
Q 2605 576 2899 733 
Q 3194 890 3421 1168 
Q 3648 1446 3782 1811 
Q 3648 2176 3421 2454 
Q 3194 2733 2899 2889 
Q 2605 3046 2259 3046 
Q 1920 3046 1657 2889 
Q 1395 2733 1244 2454 
Q 1094 2176 1094 1811 
z
" transform="scale(0.015625)"/>
       <path id="Unbounded-Regular-66" d="M 2637 4371 
Q 2170 4371 1942 4172 
Q 1715 3974 1715 3526 
L 1715 0 
L 883 0 
L 883 3450 
Q 883 3917 1059 4269 
Q 1235 4621 1603 4819 
Q 1971 5018 2541 5018 
Q 2816 5018 3027 4973 
Q 3238 4928 3443 4858 
L 3443 4205 
Q 3258 4294 3059 4332 
Q 2861 4371 2637 4371 
z
M 109 2733 
L 109 3373 
L 3373 3373 
L 3373 2733 
L 109 2733 
z
" transform="scale(0.015625)"/>
       <path id="Unbounded-Regular-72" d="M 269 3622 
L 1101 3622 
L 1318 2304 
L 1318 0 
L 486 0 
L 486 2464 
L 269 3622 
z
M 3155 3648 
L 3155 2918 
Q 3014 2957 2848 2976 
Q 2682 2995 2534 2995 
Q 2182 2995 1907 2841 
Q 1632 2688 1475 2384 
Q 1318 2080 1318 1638 
L 1126 1875 
Q 1152 2259 1257 2595 
Q 1363 2931 1552 3180 
Q 1741 3430 2016 3571 
Q 2291 3712 2656 3712 
Q 2784 3712 2918 3696 
Q 3053 3680 3155 3648 
z
" transform="scale(0.015625)"/>
       <path id="Unbounded-Regular-6d" d="M 269 3622 
L 1101 3622 
L 1318 2317 
L 1318 0 
L 486 0 
L 486 2438 
L 269 3622 
z
M 2656 3712 
Q 3136 3712 3472 3507 
Q 3808 3302 3984 2921 
Q 4160 2541 4160 2003 
L 4160 0 
L 3328 0 
L 3328 1869 
Q 3328 2438 3088 2729 
Q 2848 3021 2387 3021 
Q 2061 3021 1821 2864 
Q 1581 2707 1449 2425 
Q 1318 2144 1318 1766 
L 1024 1926 
Q 1082 2490 1302 2886 
Q 1523 3283 1872 3497 
Q 2221 3712 2656 3712 
z
M 5491 3712 
Q 5971 3712 6310 3507 
Q 6650 3302 6826 2921 
Q 7002 2541 7002 2003 
L 7002 0 
L 6170 0 
L 6170 1869 
Q 6170 2438 5930 2729 
Q 5690 3021 5229 3021 
Q 4902 3021 4662 2864 
Q 4422 2707 4291 2425 
Q 4160 2144 4160 1766 
L 3866 1926 
Q 3923 2490 4144 2886 
Q 4365 3283 4713 3497 
Q 5062 3712 5491 3712 
z
" transform="scale(0.015625)"/>
       <path id="Unbounded-Regular-43" d="M 5600 1901 
Q 5536 1312 5187 861 
Q 4838 410 4275 160 
Q 3712 -90 2989 -90 
Q 2182 -90 1574 224 
Q 966 538 627 1098 
Q 288 1658 288 2400 
Q 288 3142 627 3702 
Q 966 4262 1574 4576 
Q 2182 4890 2989 4890 
Q 3712 4890 4275 4640 
Q 4838 4390 5187 3942 
Q 5536 3494 5600 2899 
L 4749 2899 
Q 4678 3283 4444 3558 
Q 4211 3834 3840 3984 
Q 3469 4134 2982 4134 
Q 2419 4134 2006 3923 
Q 1594 3712 1370 3321 
Q 1146 2931 1146 2400 
Q 1146 1869 1370 1478 
Q 1594 1088 2006 877 
Q 2419 666 2982 666 
Q 3469 666 3840 813 
Q 4211 960 4444 1238 
Q 4678 1517 4749 1901 
L 5600 1901 
z
" transform="scale(0.015625)"/>
       <path id="Unbounded-Regular-55" d="M 1318 2061 
Q 1318 1632 1491 1318 
Q 1664 1005 1987 835 
Q 2310 666 2758 666 
Q 3213 666 3533 835 
Q 3853 1005 4025 1318 
Q 4198 1632 4198 2061 
L 4198 4800 
L 5043 4800 
L 5043 2029 
Q 5043 1395 4755 918 
Q 4467 442 3955 176 
Q 3443 -90 2758 -90 
Q 2080 -90 1565 176 
Q 1050 442 762 918 
Q 474 1395 474 2029 
L 474 4800 
L 1318 4800 
L 1318 2061 
z
" transform="scale(0.015625)"/>
      </defs>
      <use xlink:href="#Unbounded-Regular-48"/>
      <use xlink:href="#Unbounded-Regular-6f" x="90.999985"/>
      <use xlink:href="#Unbounded-Regular-73" x="167.399979"/>
      <use xlink:href="#Unbounded-Regular-74" x="236.499969"/>
      <use xlink:href="#Unbounded-Regular-20" x="291.999954"/>
      <use xlink:href="#Unbounded-Regular-50" x="318.499939"/>
      <use xlink:href="#Unbounded-Regular-6c" x="396.399933"/>
      <use xlink:href="#Unbounded-Regular-61" x="423.199921"/>
      <use xlink:href="#Unbounded-Regular-74" x="501.899902"/>
      <use xlink:href="#Unbounded-Regular-66" x="557.399887"/>
      <use xlink:href="#Unbounded-Regular-6f" x="611.199875"/>
      <use xlink:href="#Unbounded-Regular-72" x="687.599869"/>
      <use xlink:href="#Unbounded-Regular-6d" x="738.19986"/>
      <use xlink:href="#Unbounded-Regular-20" x="853.699844"/>
      <use xlink:href="#Unbounded-Regular-43" x="880.199829"/>
      <use xlink:href="#Unbounded-Regular-50" x="971.399811"/>
      <use xlink:href="#Unbounded-Regular-55" x="1049.299805"/>
     </g>
    </g>
   </g>
   <g id="matplotlib.axis_2">
    <g id="ytick_1">
     <g id="line2d_3">
      <defs>
       <path id="m7975d04b0b" d="M 0 0 
L -3.5 0 
" style="stroke: #ffffff; stroke-width: 0.8"/>
      </defs>
      <g>
       <use xlink:href="#m7975d04b0b" x="66.78" y="313.992" style="fill: #ffffff; stroke: #ffffff; stroke-width: 0.8"/>
      </g>
     </g>
     <g id="text_4">
      <!-- 0 -->
      <g style="fill: #ffffff" transform="translate(50.850313 317.842) scale(0.1 -0.1)">
       <use xlink:href="#Unbounded-Regular-30"/>
      </g>
     </g>
    </g>
    <g id="ytick_2">
     <g id="line2d_4">
      <g>
       <use xlink:href="#m7975d04b0b" x="66.78" y="262.248" style="fill: #ffffff; stroke: #ffffff; stroke-width: 0.8"/>
      </g>
     </g>
     <g id="text_5">
      <!-- 20 -->
      <g style="fill: #ffffff" transform="translate(42.959688 266.098) scale(0.1 -0.1)">
       <use xlink:href="#Unbounded-Regular-32"/>
       <use xlink:href="#Unbounded-Regular-30" x="78.899994"/>
      </g>
     </g>
    </g>
    <g id="ytick_3">
     <g id="line2d_5">
      <g>
       <use xlink:href="#m7975d04b0b" x="66.78" y="210.504" style="fill: #ffffff; stroke: #ffffff; stroke-width: 0.8"/>
      </g>
     </g>
     <g id="text_6">
      <!-- 40 -->
      <g style="fill: #ffffff" transform="translate(42.820625 214.354) scale(0.1 -0.1)">
       <defs>
        <path id="Unbounded-Regular-34" d="M 4083 4800 
L 4083 0 
L 3238 0 
L 3238 4448 
L 3584 4448 
L 832 1389 
L 813 1690 
L 4960 1690 
L 4960 1011 
L 147 1011 
L 147 1619 
L 3008 4800 
L 4083 4800 
z
" transform="scale(0.015625)"/>
       </defs>
       <use xlink:href="#Unbounded-Regular-34"/>
       <use xlink:href="#Unbounded-Regular-30" x="80.299988"/>
      </g>
     </g>
    </g>
    <g id="ytick_4">
     <g id="line2d_6">
      <g>
       <use xlink:href="#m7975d04b0b" x="66.78" y="158.76" style="fill: #ffffff; stroke: #ffffff; stroke-width: 0.8"/>
      </g>
     </g>
     <g id="text_7">
      <!-- 60 -->
      <g style="fill: #ffffff" transform="translate(42.600313 162.61) scale(0.1 -0.1)">
       <defs>
        <path id="Unbounded-Regular-36" d="M 2778 4890 
Q 3347 4890 3788 4717 
Q 4230 4544 4512 4246 
Q 4794 3949 4864 3565 
L 4032 3565 
Q 3930 3827 3648 4009 
Q 3366 4192 2797 4192 
Q 2221 4192 1856 3977 
Q 1491 3763 1321 3369 
Q 1152 2976 1152 2426 
Q 1152 1856 1344 1446 
Q 1536 1037 1913 822 
Q 2291 608 2848 608 
Q 3270 608 3555 726 
Q 3840 845 3984 1056 
Q 4128 1267 4128 1530 
Q 4128 1779 4000 1974 
Q 3872 2170 3606 2285 
Q 3341 2400 2925 2400 
Q 2368 2400 1894 2131 
Q 1421 1862 1107 1434 
L 749 1696 
Q 960 2086 1296 2403 
Q 1632 2720 2083 2909 
Q 2534 3098 3091 3098 
Q 3661 3098 4086 2909 
Q 4512 2720 4745 2374 
Q 4979 2029 4979 1555 
Q 4979 1069 4716 697 
Q 4454 326 3977 118 
Q 3501 -90 2848 -90 
Q 2022 -90 1459 227 
Q 896 544 611 1107 
Q 326 1670 326 2400 
Q 326 3130 608 3693 
Q 890 4256 1437 4573 
Q 1984 4890 2778 4890 
z
" transform="scale(0.015625)"/>
       </defs>
       <use xlink:href="#Unbounded-Regular-36"/>
       <use xlink:href="#Unbounded-Regular-30" x="82.499985"/>
      </g>
     </g>
    </g>
    <g id="ytick_5">
     <g id="line2d_7">
      <g>
       <use xlink:href="#m7975d04b0b" x="66.78" y="107.016" style="fill: #ffffff; stroke: #ffffff; stroke-width: 0.8"/>
      </g>
     </g>
     <g id="text_8">
      <!-- 80 -->
      <g style="fill: #ffffff" transform="translate(42.309687 110.866) scale(0.1 -0.1)">
       <defs>
        <path id="Unbounded-Regular-38" d="M 2733 4890 
Q 3802 4890 4384 4544 
Q 4966 4198 4966 3578 
Q 4966 3008 4435 2701 
Q 3904 2394 2950 2413 
L 2950 2547 
Q 4000 2605 4576 2285 
Q 5152 1965 5152 1318 
Q 5152 646 4525 278 
Q 3898 -90 2733 -90 
Q 1574 -90 944 278 
Q 314 646 314 1318 
Q 314 1965 893 2288 
Q 1472 2611 2515 2547 
L 2515 2413 
Q 1568 2394 1033 2701 
Q 499 3008 499 3578 
Q 499 4198 1081 4544 
Q 1664 4890 2733 4890 
z
M 2733 589 
Q 3494 589 3897 784 
Q 4301 979 4301 1363 
Q 4301 1760 3897 1945 
Q 3494 2131 2733 2131 
Q 1971 2131 1568 1945 
Q 1165 1760 1165 1363 
Q 1165 979 1568 784 
Q 1971 589 2733 589 
z
M 2733 2797 
Q 3174 2797 3484 2873 
Q 3795 2950 3958 3110 
Q 4122 3270 4122 3507 
Q 4122 3846 3760 4028 
Q 3398 4211 2733 4211 
Q 2074 4211 1709 4028 
Q 1344 3846 1344 3507 
Q 1344 3270 1507 3110 
Q 1670 2950 1980 2873 
Q 2291 2797 2733 2797 
z
" transform="scale(0.015625)"/>
       </defs>
       <use xlink:href="#Unbounded-Regular-38"/>
       <use xlink:href="#Unbounded-Regular-30" x="85.399994"/>
      </g>
     </g>
    </g>
    <g id="ytick_6">
     <g id="line2d_8">
      <g>
       <use xlink:href="#m7975d04b0b" x="66.78" y="55.272" style="fill: #ffffff; stroke: #ffffff; stroke-width: 0.8"/>
      </g>
     </g>
     <g id="text_9">
      <!-- 100 -->
      <g style="fill: #ffffff" transform="translate(37.21125 59.122) scale(0.1 -0.1)">
       <use xlink:href="#Unbounded-Regular-31"/>
       <use xlink:href="#Unbounded-Regular-30" x="47.099991"/>
       <use xlink:href="#Unbounded-Regular-30" x="136.399979"/>
      </g>
     </g>
    </g>
    <g id="text_10">
     <!-- Cycles (%) -->
     <g style="fill: #ffffff" transform="translate(31.420625 208.953063) rotate(-90) scale(0.1 -0.1)">
      <defs>
       <path id="Unbounded-Regular-79" d="M 1312 -1146 
Q 992 -1146 733 -1066 
Q 474 -986 250 -845 
L 250 -211 
Q 493 -365 713 -435 
Q 934 -506 1210 -506 
Q 1472 -506 1677 -387 
Q 1882 -269 2016 26 
L 3648 3622 
L 4531 3622 
L 2656 -256 
Q 2502 -576 2294 -771 
Q 2086 -966 1840 -1056 
Q 1594 -1146 1312 -1146 
z
M 1728 115 
L 64 3622 
L 979 3622 
L 2554 115 
L 1728 115 
z
" transform="scale(0.015625)"/>
       <path id="Unbounded-Regular-63" d="M 4442 1427 
Q 4378 979 4090 636 
Q 3802 294 3354 102 
Q 2906 -90 2355 -90 
Q 1728 -90 1251 150 
Q 774 390 505 819 
Q 237 1248 237 1811 
Q 237 2374 505 2803 
Q 774 3232 1251 3472 
Q 1728 3712 2355 3712 
Q 2906 3712 3354 3520 
Q 3802 3328 4090 2985 
Q 4378 2643 4442 2189 
L 3603 2189 
Q 3514 2598 3174 2828 
Q 2835 3059 2355 3059 
Q 1971 3059 1683 2908 
Q 1395 2758 1238 2480 
Q 1082 2202 1082 1811 
Q 1082 1427 1238 1145 
Q 1395 864 1683 713 
Q 1971 563 2355 563 
Q 2842 563 3181 800 
Q 3520 1037 3603 1427 
L 4442 1427 
z
" transform="scale(0.015625)"/>
       <path id="Unbounded-Regular-65" d="M 2419 -90 
Q 1786 -90 1293 150 
Q 800 390 518 819 
Q 237 1248 237 1818 
Q 237 2381 502 2806 
Q 768 3232 1238 3472 
Q 1709 3712 2317 3712 
Q 2925 3712 3369 3440 
Q 3814 3168 4057 2675 
Q 4301 2182 4301 1517 
L 890 1517 
L 890 2150 
L 3885 2150 
L 3469 1914 
Q 3450 2272 3299 2528 
Q 3149 2784 2896 2921 
Q 2643 3059 2298 3059 
Q 1933 3059 1661 2912 
Q 1389 2765 1235 2499 
Q 1082 2234 1082 1869 
Q 1082 1466 1264 1171 
Q 1446 877 1782 720 
Q 2118 563 2579 563 
Q 2995 563 3430 694 
Q 3866 826 4198 1062 
L 4198 461 
Q 3866 205 3389 57 
Q 2912 -90 2419 -90 
z
" transform="scale(0.015625)"/>
       <path id="Unbounded-Regular-28" d="M 1280 4800 
L 1958 4800 
Q 1536 4102 1334 3433 
Q 1133 2765 1133 2074 
Q 1133 1395 1334 726 
Q 1536 58 1958 -646 
L 1280 -646 
Q 774 19 524 688 
Q 275 1357 275 2074 
Q 275 2797 524 3469 
Q 774 4141 1280 4800 
z
" transform="scale(0.015625)"/>
       <path id="Unbounded-Regular-25" d="M 1734 2042 
Q 1274 2042 922 2218 
Q 570 2394 371 2714 
Q 173 3034 173 3450 
Q 173 3866 371 4182 
Q 570 4499 922 4675 
Q 1274 4851 1734 4851 
Q 2202 4851 2550 4675 
Q 2899 4499 3097 4182 
Q 3296 3866 3296 3450 
Q 3296 3034 3097 2714 
Q 2899 2394 2550 2218 
Q 2202 2042 1734 2042 
z
M 1734 2573 
Q 2144 2573 2381 2806 
Q 2618 3040 2618 3450 
Q 2618 3853 2381 4089 
Q 2144 4326 1734 4326 
Q 1325 4326 1088 4089 
Q 851 3853 851 3450 
Q 851 3040 1088 2806 
Q 1325 2573 1734 2573 
z
M 6029 -77 
Q 5568 -77 5216 99 
Q 4864 275 4665 595 
Q 4467 915 4467 1331 
Q 4467 1747 4665 2064 
Q 4864 2381 5216 2557 
Q 5568 2733 6029 2733 
Q 6496 2733 6845 2557 
Q 7194 2381 7392 2064 
Q 7590 1747 7590 1331 
Q 7590 915 7392 595 
Q 7194 275 6845 99 
Q 6496 -77 6029 -77 
z
M 6029 454 
Q 6438 454 6675 688 
Q 6912 922 6912 1331 
Q 6912 1734 6675 1971 
Q 6438 2208 6029 2208 
Q 5619 2208 5382 1971 
Q 5146 1734 5146 1331 
Q 5146 922 5382 688 
Q 5619 454 6029 454 
z
M 4858 4800 
L 5517 4800 
L 2912 0 
L 2259 0 
L 4858 4800 
z
" transform="scale(0.015625)"/>
       <path id="Unbounded-Regular-29" d="M 838 4800 
Q 1344 4141 1593 3469 
Q 1843 2797 1843 2074 
Q 1843 1357 1593 688 
Q 1344 19 838 -646 
L 160 -646 
Q 582 58 784 726 
Q 986 1395 986 2074 
Q 986 2765 784 3433 
Q 582 4102 160 4800 
L 838 4800 
z
" transform="scale(0.015625)"/>
      </defs>
      <use xlink:href="#Unbounded-Regular-43"/>
      <use xlink:href="#Unbounded-Regular-79" x="91.199982"/>
      <use xlink:href="#Unbounded-Regular-63" x="162.699966"/>
      <use xlink:href="#Unbounded-Regular-6c" x="235.09996"/>
      <use xlink:href="#Unbounded-Regular-65" x="261.899948"/>
      <use xlink:href="#Unbounded-Regular-73" x="332.899933"/>
      <use xlink:href="#Unbounded-Regular-20" x="401.999924"/>
      <use xlink:href="#Unbounded-Regular-28" x="428.499908"/>
      <use xlink:href="#Unbounded-Regular-25" x="461.599899"/>
      <use xlink:href="#Unbounded-Regular-29" x="582.69989"/>
     </g>
    </g>
   </g>
   <g id="patch_15">
    <path d="M 66.78 313.992 
L 66.78 42.336 
" style="fill: none; stroke: #ffffff; stroke-width: 0.8; stroke-linejoin: miter; stroke-linecap: square"/>
   </g>
   <g id="patch_16">
    <path d="M 480.816 313.992 
L 480.816 42.336 
" style="fill: none; stroke: #ffffff; stroke-width: 0.8; stroke-linejoin: miter; stroke-linecap: square"/>
   </g>
   <g id="patch_17">
    <path d="M 66.78 313.992 
L 480.816 313.992 
" style="fill: none; stroke: #ffffff; stroke-width: 0.8; stroke-linejoin: miter; stroke-linecap: square"/>
   </g>
   <g id="patch_18">
    <path d="M 66.78 42.336 
L 480.816 42.336 
" style="fill: none; stroke: #ffffff; stroke-width: 0.8; stroke-linejoin: miter; stroke-linecap: square"/>
   </g>
   <g id="text_11">
    <!-- 100.00% -->
    <g style="fill: #ffffff" transform="translate(84.926679 53.622) scale(0.1 -0.1)">
     <defs>
      <path id="Unbounded-Regular-2e" d="M 826 -51 
Q 678 -51 560 19 
Q 442 90 371 208 
Q 301 326 301 474 
Q 301 621 371 739 
Q 442 858 560 928 
Q 678 998 826 998 
Q 973 998 1091 928 
Q 1210 858 1280 739 
Q 1350 621 1350 474 
Q 1350 326 1280 208 
Q 1210 90 1091 19 
Q 973 -51 826 -51 
z
" transform="scale(0.015625)"/>
     </defs>
     <use xlink:href="#Unbounded-Regular-31"/>
     <use xlink:href="#Unbounded-Regular-30" x="47.099991"/>
     <use xlink:href="#Unbounded-Regular-30" x="136.399979"/>
     <use xlink:href="#Unbounded-Regular-2e" x="225.699966"/>
     <use xlink:href="#Unbounded-Regular-30" x="251.499954"/>
     <use xlink:href="#Unbounded-Regular-30" x="340.799942"/>
     <use xlink:href="#Unbounded-Regular-25" x="430.09993"/>
    </g>
   </g>
   <g id="text_12">
    <!-- 100.00% -->
    <g style="fill: #ffffff" transform="translate(300.010315 53.622) scale(0.1 -0.1)">
     <use xlink:href="#Unbounded-Regular-31"/>
     <use xlink:href="#Unbounded-Regular-30" x="47.099991"/>
     <use xlink:href="#Unbounded-Regular-30" x="136.399979"/>
     <use xlink:href="#Unbounded-Regular-2e" x="225.699966"/>
     <use xlink:href="#Unbounded-Regular-30" x="251.499954"/>
     <use xlink:href="#Unbounded-Regular-30" x="340.799942"/>
     <use xlink:href="#Unbounded-Regular-25" x="430.09993"/>
    </g>
   </g>
   <g id="text_13">
    <!-- 50.39% -->
    <g style="fill: #ffffff" transform="translate(142.426494 181.970669) scale(0.1 -0.1)">
     <defs>
      <path id="Unbounded-Regular-33" d="M 365 3322 
Q 410 3763 688 4118 
Q 966 4474 1468 4682 
Q 1971 4890 2669 4890 
Q 3290 4890 3747 4726 
Q 4205 4563 4454 4272 
Q 4704 3981 4704 3584 
Q 4704 3251 4509 2985 
Q 4314 2720 3917 2566 
Q 3520 2413 2925 2413 
L 2925 2534 
Q 3514 2560 3936 2429 
Q 4358 2298 4585 2032 
Q 4813 1766 4813 1382 
Q 4813 954 4550 621 
Q 4288 288 3792 99 
Q 3296 -90 2579 -90 
Q 1882 -90 1363 112 
Q 845 314 553 678 
Q 262 1043 230 1530 
L 1082 1530 
Q 1139 1082 1516 842 
Q 1894 602 2579 602 
Q 3264 602 3609 826 
Q 3955 1050 3955 1440 
Q 3955 1670 3836 1827 
Q 3718 1984 3446 2067 
Q 3174 2150 2714 2150 
L 1843 2150 
L 1843 2778 
L 2714 2778 
Q 3309 2778 3577 2973 
Q 3846 3168 3846 3475 
Q 3846 3814 3548 4006 
Q 3251 4198 2624 4198 
Q 2010 4198 1648 3971 
Q 1286 3744 1216 3322 
L 365 3322 
z
" transform="scale(0.015625)"/>
     </defs>
     <use xlink:href="#Unbounded-Regular-35"/>
     <use xlink:href="#Unbounded-Regular-30" x="77.499985"/>
     <use xlink:href="#Unbounded-Regular-2e" x="166.799973"/>
     <use xlink:href="#Unbounded-Regular-33" x="192.59996"/>
     <use xlink:href="#Unbounded-Regular-39" x="272.999954"/>
     <use xlink:href="#Unbounded-Regular-25" x="355.499939"/>
    </g>
   </g>
   <g id="text_14">
    <!-- 60.38% -->
    <g style="fill: #ffffff" transform="translate(357.114818 156.125298) scale(0.1 -0.1)">
     <use xlink:href="#Unbounded-Regular-36"/>
     <use xlink:href="#Unbounded-Regular-30" x="82.499985"/>
     <use xlink:href="#Unbounded-Regular-2e" x="171.799973"/>
     <use xlink:href="#Unbounded-Regular-33" x="197.59996"/>
     <use xlink:href="#Unbounded-Regular-38" x="277.999954"/>
     <use xlink:href="#Unbounded-Regular-25" x="363.399948"/>
    </g>
   </g>
   <g id="text_15">
    <!-- 5.75% -->
    <g style="fill: #ffffff" transform="translate(201.412247 297.467334) scale(0.1 -0.1)">
     <defs>
      <path id="Unbounded-Regular-37" d="M 909 0 
L 3584 4346 
L 3578 4096 
L 58 4096 
L 58 4800 
L 4326 4800 
L 4326 4115 
L 1811 0 
L 909 0 
z
" transform="scale(0.015625)"/>
     </defs>
     <use xlink:href="#Unbounded-Regular-35"/>
     <use xlink:href="#Unbounded-Regular-2e" x="77.499985"/>
     <use xlink:href="#Unbounded-Regular-37" x="103.299973"/>
     <use xlink:href="#Unbounded-Regular-35" x="173.699966"/>
     <use xlink:href="#Unbounded-Regular-25" x="251.199951"/>
    </g>
   </g>
   <g id="text_16">
    <!-- 4.54% -->
    <g style="fill: #ffffff" transform="translate(415.861509 300.60454) scale(0.1 -0.1)">
     <use xlink:href="#Unbounded-Regular-34"/>
     <use xlink:href="#Unbounded-Regular-2e" x="80.299988"/>
     <use xlink:href="#Unbounded-Regular-35" x="106.099976"/>
     <use xlink:href="#Unbounded-Regular-34" x="183.59996"/>
     <use xlink:href="#Unbounded-Regular-25" x="263.899948"/>
    </g>
   </g>
   <g id="text_17">
    <!-- Cycles to assemble 16kinstrs.s (normalized per platform) -->
    <g style="fill: #ffffff" transform="translate(71.177063 36.336) scale(0.12 -0.12)">
     <defs>
      <path id="Unbounded-Regular-62" d="M 442 4928 
L 1274 4928 
L 1274 2374 
L 1146 2138 
L 1146 1466 
L 1274 1197 
L 1274 0 
L 442 0 
L 442 4928 
z
M 941 1811 
Q 1062 2387 1344 2812 
Q 1626 3238 2038 3475 
Q 2451 3712 2957 3712 
Q 3488 3712 3897 3472 
Q 4307 3232 4537 2806 
Q 4768 2381 4768 1811 
Q 4768 1248 4537 819 
Q 4307 390 3897 150 
Q 3488 -90 2957 -90 
Q 2451 -90 2038 147 
Q 1626 384 1344 813 
Q 1062 1242 941 1811 
z
M 3923 1811 
Q 3923 2176 3772 2454 
Q 3622 2733 3360 2889 
Q 3098 3046 2758 3046 
Q 2419 3046 2121 2889 
Q 1824 2733 1600 2454 
Q 1376 2176 1235 1811 
Q 1376 1446 1600 1168 
Q 1824 890 2121 733 
Q 2419 576 2758 576 
Q 3098 576 3360 733 
Q 3622 890 3772 1168 
Q 3923 1446 3923 1811 
z
" transform="scale(0.015625)"/>
      <path id="Unbounded-Regular-6b" d="M 1274 723 
L 1030 813 
L 3334 3622 
L 4294 3622 
L 1216 0 
L 442 0 
L 442 4928 
L 1274 4928 
L 1274 723 
z
M 2304 1792 
L 2886 2317 
L 4403 0 
L 3424 0 
L 2304 1792 
z
" transform="scale(0.015625)"/>
      <path id="Unbounded-Regular-69" d="M 442 3648 
L 858 3571 
L 1274 3648 
L 1274 0 
L 442 0 
L 442 3648 
z
M 858 4102 
Q 621 4102 467 4233 
Q 314 4365 314 4576 
Q 314 4787 467 4918 
Q 621 5050 858 5050 
Q 1101 5050 1251 4918 
Q 1402 4787 1402 4576 
Q 1402 4365 1251 4233 
Q 1101 4102 858 4102 
z
" transform="scale(0.015625)"/>
      <path id="Unbounded-Regular-6e" d="M 269 3622 
L 1101 3622 
L 1318 2317 
L 1318 0 
L 486 0 
L 486 2438 
L 269 3622 
z
M 2758 3712 
Q 3270 3712 3628 3507 
Q 3987 3302 4176 2921 
Q 4365 2541 4365 2003 
L 4365 0 
L 3533 0 
L 3533 1869 
Q 3533 2438 3267 2729 
Q 3002 3021 2490 3021 
Q 2138 3021 1872 2864 
Q 1606 2707 1462 2425 
Q 1318 2144 1318 1766 
L 1024 1926 
Q 1082 2490 1318 2886 
Q 1555 3283 1926 3497 
Q 2298 3712 2758 3712 
z
" transform="scale(0.015625)"/>
      <path id="Unbounded-Regular-7a" d="M 237 0 
L 237 602 
L 3066 3187 
L 3584 2982 
L 262 2982 
L 262 3622 
L 3904 3622 
L 3904 3021 
L 1082 435 
L 634 640 
L 3917 640 
L 3917 0 
L 237 0 
z
" transform="scale(0.015625)"/>
      <path id="Unbounded-Regular-64" d="M 3834 0 
L 3693 1376 
L 3878 1805 
L 3699 2298 
L 3968 4928 
L 4826 4928 
L 4499 1862 
L 4685 0 
L 3834 0 
z
M 4077 1811 
Q 3955 1242 3673 813 
Q 3392 384 2979 147 
Q 2566 -90 2061 -90 
Q 1530 -90 1120 150 
Q 710 390 480 819 
Q 250 1248 250 1811 
Q 250 2381 480 2806 
Q 710 3232 1120 3472 
Q 1530 3712 2061 3712 
Q 2566 3712 2979 3475 
Q 3392 3238 3677 2812 
Q 3962 2387 4077 1811 
z
M 1094 1811 
Q 1094 1446 1244 1168 
Q 1395 890 1657 733 
Q 1920 576 2259 576 
Q 2605 576 2899 733 
Q 3194 890 3421 1168 
Q 3648 1446 3782 1811 
Q 3648 2176 3421 2454 
Q 3194 2733 2899 2889 
Q 2605 3046 2259 3046 
Q 1920 3046 1657 2889 
Q 1395 2733 1244 2454 
Q 1094 2176 1094 1811 
z
" transform="scale(0.015625)"/>
      <path id="Unbounded-Regular-70" d="M 442 3622 
L 1274 3622 
L 1274 2362 
L 1235 2234 
L 1235 1504 
L 1274 1280 
L 1274 -1056 
L 442 -1056 
L 442 3622 
z
M 954 1811 
Q 1075 2387 1356 2812 
Q 1638 3238 2051 3475 
Q 2464 3712 2970 3712 
Q 3501 3712 3910 3472 
Q 4320 3232 4550 2806 
Q 4781 2381 4781 1811 
Q 4781 1248 4550 819 
Q 4320 390 3910 150 
Q 3501 -90 2970 -90 
Q 2464 -90 2054 147 
Q 1645 384 1360 813 
Q 1075 1242 954 1811 
z
M 3936 1811 
Q 3936 2176 3785 2454 
Q 3635 2733 3372 2889 
Q 3110 3046 2771 3046 
Q 2432 3046 2134 2889 
Q 1837 2733 1613 2454 
Q 1389 2176 1248 1811 
Q 1389 1446 1613 1168 
Q 1837 890 2134 733 
Q 2432 576 2771 576 
Q 3110 576 3372 733 
Q 3635 890 3785 1168 
Q 3936 1446 3936 1811 
z
" transform="scale(0.015625)"/>
     </defs>
     <use xlink:href="#Unbounded-Regular-43"/>
     <use xlink:href="#Unbounded-Regular-79" x="91.199982"/>
     <use xlink:href="#Unbounded-Regular-63" x="162.699966"/>
     <use xlink:href="#Unbounded-Regular-6c" x="235.09996"/>
     <use xlink:href="#Unbounded-Regular-65" x="261.899948"/>
     <use xlink:href="#Unbounded-Regular-73" x="332.899933"/>
     <use xlink:href="#Unbounded-Regular-20" x="401.999924"/>
     <use xlink:href="#Unbounded-Regular-74" x="428.499908"/>
     <use xlink:href="#Unbounded-Regular-6f" x="483.999893"/>
     <use xlink:href="#Unbounded-Regular-20" x="560.399887"/>
     <use xlink:href="#Unbounded-Regular-61" x="586.899872"/>
     <use xlink:href="#Unbounded-Regular-73" x="665.599854"/>
     <use xlink:href="#Unbounded-Regular-73" x="734.699844"/>
     <use xlink:href="#Unbounded-Regular-65" x="803.799835"/>
     <use xlink:href="#Unbounded-Regular-6d" x="874.79982"/>
     <use xlink:href="#Unbounded-Regular-62" x="990.299805"/>
     <use xlink:href="#Unbounded-Regular-6c" x="1068.699799"/>
     <use xlink:href="#Unbounded-Regular-65" x="1095.499786"/>
     <use xlink:href="#Unbounded-Regular-20" x="1166.499771"/>
     <use xlink:href="#Unbounded-Regular-31" x="1192.999756"/>
     <use xlink:href="#Unbounded-Regular-36" x="1240.099747"/>
     <use xlink:href="#Unbounded-Regular-6b" x="1322.599731"/>
     <use xlink:href="#Unbounded-Regular-69" x="1391.099716"/>
     <use xlink:href="#Unbounded-Regular-6e" x="1417.899704"/>
     <use xlink:href="#Unbounded-Regular-73" x="1492.199692"/>
     <use xlink:href="#Unbounded-Regular-74" x="1561.299683"/>
     <use xlink:href="#Unbounded-Regular-72" x="1616.799667"/>
     <use xlink:href="#Unbounded-Regular-73" x="1667.399658"/>
     <use xlink:href="#Unbounded-Regular-2e" x="1736.499649"/>
     <use xlink:href="#Unbounded-Regular-73" x="1762.299637"/>
     <use xlink:href="#Unbounded-Regular-20" x="1831.399628"/>
     <use xlink:href="#Unbounded-Regular-28" x="1857.899612"/>
     <use xlink:href="#Unbounded-Regular-6e" x="1890.999603"/>
     <use xlink:href="#Unbounded-Regular-6f" x="1965.299591"/>
     <use xlink:href="#Unbounded-Regular-72" x="2041.699585"/>
     <use xlink:href="#Unbounded-Regular-6d" x="2092.299576"/>
     <use xlink:href="#Unbounded-Regular-61" x="2207.799561"/>
     <use xlink:href="#Unbounded-Regular-6c" x="2286.499542"/>
     <use xlink:href="#Unbounded-Regular-69" x="2313.29953"/>
     <use xlink:href="#Unbounded-Regular-7a" x="2340.099518"/>
     <use xlink:href="#Unbounded-Regular-65" x="2405.099503"/>
     <use xlink:href="#Unbounded-Regular-64" x="2476.099487"/>
     <use xlink:href="#Unbounded-Regular-20" x="2554.899475"/>
     <use xlink:href="#Unbounded-Regular-70" x="2581.39946"/>
     <use xlink:href="#Unbounded-Regular-65" x="2659.999451"/>
     <use xlink:href="#Unbounded-Regular-72" x="2730.999435"/>
     <use xlink:href="#Unbounded-Regular-20" x="2781.599426"/>
     <use xlink:href="#Unbounded-Regular-70" x="2808.099411"/>
     <use xlink:href="#Unbounded-Regular-6c" x="2886.699402"/>
     <use xlink:href="#Unbounded-Regular-61" x="2913.49939"/>
     <use xlink:href="#Unbounded-Regular-74" x="2992.199371"/>
     <use xlink:href="#Unbounded-Regular-66" x="3047.699356"/>
     <use xlink:href="#Unbounded-Regular-6f" x="3101.499344"/>
     <use xlink:href="#Unbounded-Regular-72" x="3177.899338"/>
     <use xlink:href="#Unbounded-Regular-6d" x="3228.499329"/>
     <use xlink:href="#Unbounded-Regular-29" x="3343.999313"/>
    </g>
   </g>
   <g id="legend_1">
    <g id="patch_19">
     <path d="M 282.798 134.4156 
L 464.31675 134.4156 
Q 466.31675 134.4156 466.31675 132.4156 
L 466.31675 90.3656 
Q 466.31675 88.3656 464.31675 88.3656 
L 282.798 88.3656 
Q 280.798 88.3656 280.798 90.3656 
L 280.798 132.4156 
Q 280.798 134.4156 282.798 134.4156 
z
" style="opacity: 0.5; stroke: #000000; stroke-linejoin: miter"/>
    </g>
    <g id="patch_20">
     <path d="M 280.798 132.4156 
L 462.31675 132.4156 
Q 464.31675 132.4156 464.31675 130.4156 
L 464.31675 88.3656 
Q 464.31675 86.3656 462.31675 86.3656 
L 280.798 86.3656 
Q 278.798 86.3656 278.798 88.3656 
L 278.798 130.4156 
Q 278.798 132.4156 280.798 132.4156 
z
" style="stroke: #cccccc; stroke-linejoin: miter"/>
    </g>
    <g id="patch_21">
     <path d="M 282.798 98.0656 
L 302.798 98.0656 
L 302.798 91.0656 
L 282.798 91.0656 
z
" style="fill: #ff0000; stroke: #808080; stroke-linejoin: miter"/>
    </g>
    <g id="text_18">
     <!-- llvm-mc 17/20 -->
     <g style="fill: #ffffff" transform="translate(310.798 98.0656) scale(0.1 -0.1)">
      <defs>
       <path id="Unbounded-Regular-76" d="M 2464 371 
L 2144 371 
L 3629 3622 
L 4518 3622 
L 2752 0 
L 1818 0 
L 51 3622 
L 966 3622 
L 2464 371 
z
" transform="scale(0.015625)"/>
       <path id="Unbounded-Regular-2d" d="M 378 2592 
L 1869 2592 
L 1869 1907 
L 378 1907 
L 378 2592 
z
" transform="scale(0.015625)"/>
       <path id="Unbounded-Regular-2f" d="M 1894 4973 
L 2592 4973 
L 800 -173 
L 102 -173 
L 1894 4973 
z
" transform="scale(0.015625)"/>
      </defs>
      <use xlink:href="#Unbounded-Regular-6c"/>
      <use xlink:href="#Unbounded-Regular-6c" x="26.799988"/>
      <use xlink:href="#Unbounded-Regular-76" x="53.599976"/>
      <use xlink:href="#Unbounded-Regular-6d" x="124.999969"/>
      <use xlink:href="#Unbounded-Regular-2d" x="240.499954"/>
      <use xlink:href="#Unbounded-Regular-6d" x="275.599945"/>
      <use xlink:href="#Unbounded-Regular-63" x="391.09993"/>
      <use xlink:href="#Unbounded-Regular-20" x="463.499924"/>
      <use xlink:href="#Unbounded-Regular-31" x="489.999908"/>
      <use xlink:href="#Unbounded-Regular-37" x="537.099899"/>
      <use xlink:href="#Unbounded-Regular-2f" x="607.499893"/>
      <use xlink:href="#Unbounded-Regular-32" x="649.599884"/>
      <use xlink:href="#Unbounded-Regular-30" x="728.499878"/>
     </g>
    </g>
    <g id="patch_22">
     <path d="M 282.798 112.4156 
L 302.798 112.4156 
L 302.798 105.4156 
L 282.798 105.4156 
z
" style="fill: #0000ff; stroke: #808080; stroke-linejoin: miter"/>
    </g>
    <g id="text_19">
     <!-- as 2.43.1/2.28 -->
     <g style="fill: #ffffff" transform="translate(310.798 112.4156) scale(0.1 -0.1)">
      <use xlink:href="#Unbounded-Regular-61"/>
      <use xlink:href="#Unbounded-Regular-73" x="78.699982"/>
      <use xlink:href="#Unbounded-Regular-20" x="147.799973"/>
      <use xlink:href="#Unbounded-Regular-32" x="174.299957"/>
      <use xlink:href="#Unbounded-Regular-2e" x="253.199951"/>
      <use xlink:href="#Unbounded-Regular-34" x="278.999939"/>
      <use xlink:href="#Unbounded-Regular-33" x="359.299927"/>
      <use xlink:href="#Unbounded-Regular-2e" x="439.699921"/>
      <use xlink:href="#Unbounded-Regular-31" x="465.499908"/>
      <use xlink:href="#Unbounded-Regular-2f" x="512.599899"/>
      <use xlink:href="#Unbounded-Regular-32" x="554.69989"/>
      <use xlink:href="#Unbounded-Regular-2e" x="633.599884"/>
      <use xlink:href="#Unbounded-Regular-32" x="659.399872"/>
      <use xlink:href="#Unbounded-Regular-38" x="738.299866"/>
     </g>
    </g>
    <g id="patch_23">
     <path d="M 282.798 126.7656 
L 302.798 126.7656 
L 302.798 119.7656 
L 282.798 119.7656 
z
" style="fill: #008000; stroke: #808080; stroke-linejoin: miter"/>
    </g>
    <g id="text_20">
     <!-- Chatassembler 06d5281 -->
     <g style="fill: #ffffff" transform="translate(310.798 126.7656) scale(0.1 -0.1)">
      <defs>
       <path id="Unbounded-Regular-68" d="M 442 4928 
L 1274 4928 
L 1274 0 
L 442 0 
L 442 4928 
z
M 2714 3712 
Q 3226 3712 3584 3507 
Q 3942 3302 4131 2921 
Q 4320 2541 4320 2003 
L 4320 0 
L 3488 0 
L 3488 1869 
Q 3488 2438 3222 2729 
Q 2957 3021 2445 3021 
Q 2093 3021 1827 2864 
Q 1562 2707 1418 2425 
Q 1274 2144 1274 1766 
L 979 1926 
Q 1037 2490 1273 2886 
Q 1510 3283 1881 3497 
Q 2253 3712 2714 3712 
z
" transform="scale(0.015625)"/>
      </defs>
      <use xlink:href="#Unbounded-Regular-43"/>
      <use xlink:href="#Unbounded-Regular-68" x="91.199982"/>
      <use xlink:href="#Unbounded-Regular-61" x="164.799973"/>
      <use xlink:href="#Unbounded-Regular-74" x="243.499954"/>
      <use xlink:href="#Unbounded-Regular-61" x="298.999939"/>
      <use xlink:href="#Unbounded-Regular-73" x="377.699921"/>
      <use xlink:href="#Unbounded-Regular-73" x="446.799911"/>
      <use xlink:href="#Unbounded-Regular-65" x="515.899902"/>
      <use xlink:href="#Unbounded-Regular-6d" x="586.899887"/>
      <use xlink:href="#Unbounded-Regular-62" x="702.399872"/>
      <use xlink:href="#Unbounded-Regular-6c" x="780.799866"/>
      <use xlink:href="#Unbounded-Regular-65" x="807.599854"/>
      <use xlink:href="#Unbounded-Regular-72" x="878.599838"/>
      <use xlink:href="#Unbounded-Regular-20" x="929.199829"/>
      <use xlink:href="#Unbounded-Regular-30" x="955.699814"/>
      <use xlink:href="#Unbounded-Regular-36" x="1044.999802"/>
      <use xlink:href="#Unbounded-Regular-64" x="1127.499786"/>
      <use xlink:href="#Unbounded-Regular-35" x="1206.299774"/>
      <use xlink:href="#Unbounded-Regular-32" x="1283.799759"/>
      <use xlink:href="#Unbounded-Regular-38" x="1362.699753"/>
      <use xlink:href="#Unbounded-Regular-31" x="1448.099747"/>
     </g>
    </g>
   </g>
  </g>
 </g>
 <defs>
  <clipPath id="p0487ea0827">
   <rect x="66.78" y="42.336" width="414.036" height="271.656"/>
  </clipPath>
 </defs>
</svg>
