<?xml version="1.0" encoding="UTF-8" standalone="no"?>
<!-- Created with Inkscape (http://www.inkscape.org/) -->

<svg
   width="365.61154mm"
   height="67.874847mm"
   viewBox="0 0 365.61154 67.874847"
   version="1.1"
   id="svg5"
   inkscape:version="1.1.2 (0a00cf5339, 2022-02-04)"
   sodipodi:docname="DiscordBanner.svg"
   inkscape:export-filename="/home/jackson/Documents/DiscordBanner.png"
   inkscape:export-xdpi="266.81754"
   inkscape:export-ydpi="266.81754"
   xmlns:inkscape="http://www.inkscape.org/namespaces/inkscape"
   xmlns:sodipodi="http://sodipodi.sourceforge.net/DTD/sodipodi-0.dtd"
   xmlns="http://www.w3.org/2000/svg"
   xmlns:svg="http://www.w3.org/2000/svg">
  <sodipodi:namedview
     id="namedview7"
     pagecolor="#505050"
     bordercolor="#ffffff"
     borderopacity="1"
     inkscape:pageshadow="0"
     inkscape:pageopacity="0"
     inkscape:pagecheckerboard="1"
     inkscape:document-units="mm"
     showgrid="false"
     inkscape:zoom="0.48246744"
     inkscape:cx="575.16835"
     inkscape:cy="364.79146"
     inkscape:window-width="1920"
     inkscape:window-height="1011"
     inkscape:window-x="0"
     inkscape:window-y="32"
     inkscape:window-maximized="1"
     inkscape:current-layer="layer1"
     fit-margin-top="0"
     fit-margin-left="0"
     fit-margin-right="0"
     fit-margin-bottom="0" />
  <defs
     id="defs2" />
  <g
     inkscape:label="Layer 1"
     inkscape:groupmode="layer"
     id="layer1"
     transform="translate(34.731903,-100.71811)">
    <rect
       style="fill:#9656ce;fill-opacity:1;stroke:none;stroke-width:2.5;stroke-linecap:round;stroke-linejoin:round;paint-order:stroke fill markers"
       id="rect846"
       width="365.61154"
       height="67.874847"
       x="-34.731903"
       y="100.71811"
       ry="4.4388151" />
    <path
       d="m 33.319856,117.02365 a 45.727863,45.727863 0 0 0 -11.287037,-3.50089 0.17120825,0.17120825 0 0 0 -0.181371,0.0874 c -0.487542,0.86714 -1.02748,1.9981 -1.40548,2.887 -4.262186,-0.63836 -8.502654,-0.63836 -12.6772686,0 -0.3780001,-0.90872 -0.9376001,-2.01986 -1.4271981,-2.887 a 0.17790879,0.17790879 0 0 0 -0.18137,-0.0874 45.600785,45.600785 0 0 0 -11.2872704,3.50037 0.16150413,0.16150413 0 0 0 -0.07414,0.0612 c -7.1888989,10.74015 -9.1583719,21.21623 -8.1921199,31.56244 a 0.19038549,0.19038549 0 0 0 0.07213,0.12927 c 4.7430018,3.48335 9.3374389,5.59788 13.84661676,6.99944 a 0.17952606,0.17952606 0 0 0 0.1945451,-0.0612 c 1.06652744,-1.4566 2.01729964,-2.99259 2.83267514,-4.60769 a 0.17559823,0.17559823 0 0 0 -0.096114,-0.24451 c -1.5082966,-0.57199 -2.94427304,-1.26963 -4.32572312,-2.06168 a 0.17790879,0.17790879 0 0 1 -0.017467,-0.29516 c 0.29066458,-0.21831 0.58155618,-0.4445 0.85904458,-0.67328 a 0.17167037,0.17167037 0 0 1 0.1792938,-0.0262 c 9.07519484,4.14344 18.89991474,4.14344 27.86789874,0 a 0.17074621,0.17074621 0 0 1 0.181371,0.0262 c 0.277698,0.22878 0.568407,0.45758 0.861385,0.6759 a 0.17790879,0.17790879 0 0 1 -0.01572,0.29516 28.415954,28.415954 0 0 1 -4.327566,2.05959 0.17698452,0.17698452 0 0 0 -0.09405,0.24625 c 0.832744,1.61275 1.783478,3.14872 2.830362,4.60532 a 0.17559823,0.17559823 0 0 0 0.194563,0.0698 c 4.530923,-1.40177 9.125359,-3.51636 13.868355,-6.99944 a 0.17790879,0.17790879 0 0 0 0.07249,-0.12752 c 1.15619,-11.96141 -1.936648,-22.35156 -8.198803,-31.56237 a 0.14094066,0.14094066 0 0 0 -0.07247,-0.0698 z M 4.9075993,142.34998 c -2.7321715,0 -4.98352524,-2.50845 -4.98352524,-5.58905 0,-3.08043 2.20768444,-5.58888 4.98375624,-5.58888 2.7975571,0 5.0269598,2.53046 4.9832928,5.58905 0,3.08043 -2.2076867,5.58888 -4.9835238,5.58888 z m 18.4258007,0 c -2.732171,0 -4.983525,-2.50845 -4.983525,-5.58905 0,-3.08043 2.207454,-5.58888 4.983525,-5.58888 2.797554,0 5.026963,2.53046 4.98329,5.58905 0,3.08043 -2.185736,5.58888 -4.98329,5.58888 z"
       id="path914"
       style="fill:#000000;fill-opacity:1;stroke-width:2.3105" />
    <text
       xml:space="preserve"
       style="font-style:normal;font-variant:normal;font-weight:normal;font-stretch:normal;font-size:26.4583px;line-height:1.25;font-family:'Paytone One';-inkscape-font-specification:'Paytone One, Normal';font-variant-ligatures:normal;font-variant-caps:normal;font-variant-numeric:normal;font-variant-east-asian:normal;fill:#000000;fill-opacity:1;stroke:none;stroke-width:0.264583"
       x="63.003014"
       y="144.48479"
       id="text7639"><tspan
         sodipodi:role="line"
         id="tspan7637"
         style="font-style:normal;font-variant:normal;font-weight:normal;font-stretch:normal;font-size:26.4583px;font-family:'Paytone One';-inkscape-font-specification:'Paytone One, Normal';font-variant-ligatures:normal;font-variant-caps:normal;font-variant-numeric:normal;font-variant-east-asian:normal;stroke-width:0.264583"
         x="63.003014"
         y="144.48479">Join us on Discord!</tspan></text>
  </g>
</svg>
